<?xml version="1.0" standalone="no"?>
<!DOCTYPE svg PUBLIC "-//W3C//DTD SVG 20010904//EN"
 "http://www.w3.org/TR/2001/REC-SVG-20010904/DTD/svg10.dtd">
<svg version="1.0" xmlns="http://www.w3.org/2000/svg"
 width="515.000000pt" height="517.000000pt" viewBox="0 0 515.000000 517.000000"
 preserveAspectRatio="xMidYMid meet">

<g transform="translate(0.000000,517.000000) scale(0.100000,-0.100000)"
fill="#000" stroke="none">
<path d="M1665 4918 c-7 -20 -423 -1111 -920 -2413 -40 -104 -148 -388 -240
-630 -92 -242 -189 -498 -216 -568 -27 -71 -49 -133 -49 -138 0 -6 123 -8 307
-7 l307 3 175 467 175 468 787 0 787 0 101 -257 c56 -142 141 -356 188 -475
l86 -218 308 0 c170 0 309 1 309 3 0 1 -62 155 -138 342 l-137 340 -55 18
c-30 10 -130 42 -223 72 -365 118 -660 307 -797 512 -27 40 -60 96 -72 123
l-23 50 -466 2 -467 3 110 295 c60 162 174 471 254 685 80 215 166 446 191
513 l46 124 29 -74 c15 -40 87 -226 160 -413 72 -187 141 -363 153 -392 22
-48 23 -60 18 -210 -7 -190 7 -317 46 -430 82 -239 277 -432 582 -577 131 -63
268 -110 564 -196 346 -100 484 -156 592 -237 108 -81 152 -163 160 -293 19
-299 -148 -520 -453 -601 -120 -32 -339 -37 -464 -11 -311 65 -520 233 -616
497 -12 33 -25 82 -29 108 l-7 47 -222 0 c-121 0 -245 3 -273 6 l-53 7 0 -46
c0 -65 37 -246 67 -330 62 -173 165 -332 289 -446 158 -145 361 -264 536 -315
579 -167 1156 -53 1512 298 151 148 250 331 298 551 20 94 17 432 -5 515 -62
228 -172 383 -377 530 -54 39 -138 88 -187 109 -83 36 -347 126 -812 276 -220
70 -265 91 -325 153 -35 36 -59 94 -251 604 -117 309 -273 718 -348 908 -74
190 -161 416 -193 502 l-59 158 -328 0 c-253 0 -329 -3 -332 -12z"/>
<path d="M3235 4114 c-44 -8 -118 -26 -165 -40 -90 -27 -250 -99 -250 -112 0
-4 41 -113 91 -242 50 -129 93 -243 96 -252 6 -20 19 -23 29 -7 15 25 130 89
202 113 209 70 453 55 649 -40 88 -42 201 -145 251 -227 38 -62 77 -171 87
-240 l7 -47 279 0 279 0 0 38 c-1 121 -45 303 -105 431 -58 121 -114 198 -211
291 -190 181 -432 292 -729 335 -127 18 -403 18 -510 -1z"/>
</g>
</svg>
